<?xml version="1.0" encoding="UTF-8"?>
<!DOCTYPE svg PUBLIC "-//W3C//DTD SVG 1.1//EN" "http://www.w3.org/Graphics/SVG/1.1/DTD/svg11.dtd">
<!-- Creator: CorelDRAW -->
<svg xmlns="http://www.w3.org/2000/svg" xml:space="preserve" width="393mm" height="851mm" style="shape-rendering:geometricPrecision; text-rendering:geometricPrecision; image-rendering:optimizeQuality; fill-rule:evenodd; clip-rule:evenodd"
viewBox="0 0 393 851"
 xmlns:xlink="http://www.w3.org/1999/xlink">
 <defs>
  <style type="text/css">
   <![CDATA[
    .str0 {stroke:#373435;stroke-width:0.2}
    .fil0 {fill:none}
   ]]>
  </style>
 </defs>
 <g id="Layer_x0020_1">
  <metadata id="CorelCorpID_0Corel-Layer"/>
  <path class="fil0 str0" d="M-228.894 521.358c46.7942,-30.5248 75.1928,-51.8679 85.1959,-64.0292 170.852,-176.664 36.6501,-215.523 25.6646,-135.731 -18.6972,135.467 -28.0458,203.2 -28.0458,203.2 7.0759,-29.0719 23.8524,-114.491 67.4687,-116.681 76.2583,15.9873 -30.6672,140.847 76.7292,117.475 48.3583,-19.1295 79.4028,-41.8836 93.1333,-68.2625 10.4487,-29.0976 2.1585,-45.8546 -24.8708,-50.2709 -76.2486,-1.0683 -51.5041,135.98 45.5083,119.063 59.0824,-33.8387 97.8879,-77.5831 116.417,-131.233 50.1906,-143.53 -36.9585,-142.283 -57.15,-20.1083 -6.9629,39.3519 -6.6983,79.4803 0.7937,120.385 49.4482,105.281 163.752,-51.5673 183.621,-115.888 20.7103,-53.9656 18.2408,-85.1864 -7.4083,-93.6625 -32.0767,-0.6914 -51.3031,46.2281 -57.6792,140.758 -1.0795,67.2869 17.7942,100.448 56.6209,99.4834 29.3535,-3.4997 52.0195,-23.1671 67.9979,-59.0021 5.8151,-30.8889 16.9276,-50.1153 33.3375,-57.6792 22.185,-9.0041 41.5877,-4.9472 58.2083,12.1709 11.6314,24.7007 11.2786,50.8063 -1.0583,78.3167 -39.5871,54.3525 -95.6162,24.6438 -90.4875,-32.8084 8.8885,-34.6119 20.001,-53.8383 33.3375,-57.6792 22.1384,-9.0138 41.5412,-4.9568 58.2083,12.1709 33.6118,-1.273 54.6021,-9.3869 62.9709,-24.3417"/>
 </g>
</svg>
