<?xml version="1.0" encoding="UTF-8"?>
<!DOCTYPE svg PUBLIC "-//W3C//DTD SVG 1.1//EN" "http://www.w3.org/Graphics/SVG/1.1/DTD/svg11.dtd">
<!-- Creator: CorelDRAW -->
<svg xmlns="http://www.w3.org/2000/svg" xml:space="preserve" width="393mm" height="851mm" style="shape-rendering:geometricPrecision; text-rendering:geometricPrecision; image-rendering:optimizeQuality; fill-rule:evenodd; clip-rule:evenodd"
viewBox="0 0 393 851"
 xmlns:xlink="http://www.w3.org/1999/xlink">
 <defs>
  <style type="text/css">
   <![CDATA[
    .str0 {stroke:#373435;stroke-width:0.2}
    .fil0 {fill:none}
   ]]>
  </style>
 </defs>
 <g id="Layer_x0020_1">
  <metadata id="CorelCorpID_0Corel-Layer"/>
  <path class="fil0 str0" d="M54.0102 507.812c0.5332,-71.6879 -13.578,-109.788 -42.3334,-114.3 -29.7613,4.7149 -53.0446,32.5844 -69.85,83.6083 -17.6292,50.8334 -17.9819,82.9362 -1.0583,96.3084 19.8837,1.2929 31.1726,-15.2876 33.8667,-49.7417 23.2833,0.7055 34.925,1.0583 34.925,1.0583 -9.1511,29.8863 -3.5067,45.0558 16.9333,45.5084 19.7873,-0.6563 28.9595,-21.4702 27.5167,-62.4417z"/>
  <path class="fil0 str0" d="M19.0852 485.587c-8.8288,-8.6016 -8.8288,-24.4766 0,-47.625 -17.2916,0.3582 -31.0499,19.761 -41.275,58.2083 9.3883,-17.242 17.855,-16.8892 25.4,1.0584 10.5833,-7.7611 15.875,-11.6417 15.875,-11.6417z"/>
  <path class="fil0 str0" d="M38.4168 413.727c2.0379,-7.5454 4.1489,-11.55 6.333,-12.0136 21.3831,-3.3045 43.2553,12.0413 65.6166,46.0375 12.7369,20.2843 21.38,32.2787 25.9292,35.9833 -1.547,-41.9975 -1.547,-69.1614 0,-81.4917 15.3137,-18.8655 31.7178,-16.7489 49.2125,6.35 6.1602,97.4311 7.5713,144.703 4.2334,141.817 -3.2757,14.774 -7.6854,20.9477 -13.2292,18.5209 -5.1221,2.076 -16.411,-4.6268 -33.8667,-20.1084 -21.2529,-20.7757 -36.4223,-32.7702 -45.5083,-35.9833 -0.7808,31.0436 -1.1336,47.2714 -1.0584,48.6833 -3.937,14.8254 -12.9328,21.5282 -26.9875,20.1084 -11.4672,-4.2756 -18.17,-9.3909 -20.1083,-15.3459 1.437,-13.879 2.1555,-20.8185 2.1555,-20.8185"/>
  <path class="fil0 str0" d="M190.021 550.534c-1.4299,-68.6163 -2.1448,-102.924 -2.1448,-102.924 2.6084,-20.7086 1.7308,-36.8009 -2.633,-48.2771 28.1061,-24.4959 57.563,-26.789 88.3708,-6.8792 31.4652,28.25 36.0513,53.65 13.7583,76.2 -4.5459,4.1329 -11.425,3.4273 -20.6375,-2.1167 1.3907,-24.9584 -4.9593,-36.7764 -19.05,-35.4541 -19.289,6.352 -28.4612,20.1103 -27.5166,41.275 -0.2637,29.8109 5.028,44.2748 15.875,43.3917 16.3791,-8.0116 18.143,-13.3033 5.2916,-15.875 -11.5468,-1.0901 -15.4274,-6.911 -11.6416,-17.4626 8.1682,-7.3383 25.1016,-8.7494 50.8,-4.2333 12.7524,13.8405 14.3399,38.0058 4.7625,72.4959 -7.3857,11.6313 -15.3232,11.2785 -23.8125,-1.0584 -25.0983,18.0342 -48.9057,18.3403 -71.4222,0.9183z"/>
  <path class="fil0 str0" d="M282.908 401.549c29.5473,-37.5692 63.991,-43.785 103.331,-18.6476 28.4476,39.4435 31.1227,66.0872 8.0253,79.9311 -13.2318,6.3443 -23.4623,-3.3571 -30.6917,-29.1042 -21.1268,-8.0319 -33.474,2.5514 -37.0417,31.75 -1.6165,30.0918 6.321,47.0251 23.8125,50.8 13.241,-11.7109 12.1827,-17.0025 -3.175,-15.875 -11.829,-7.3541 -11.2998,-17.4082 1.5875,-30.1625 43.6063,-4.7242 63.7147,1.8022 60.3251,19.5792 1.8085,46.1498 -4.8061,68.2866 -19.8437,66.4103 -8.1472,0.4978 -12.3806,-3.9119 -12.7001,-13.2291 -18.2718,13.9756 -34.676,17.6798 -49.2125,11.1125 -19.7797,-2.9499 -29.8338,-10.0055 -30.1625,-21.1667 1.2197,-34.1079 -1.9553,-53.3343 -9.525,-57.6792 14.6155,-15.6481 19.1328,-27.0721 13.5518,-34.2719"/>
  <path class="fil0 str0" d="M383.462 381.174c44.3127,-32.4848 80.3691,-29.0778 108.169,10.2209 22.6726,95.375 23.5545,148.115 2.6459,158.221 -24.6798,10.9506 -35.2632,-4.748 -31.7501,-47.0958 -14.2123,0.2251 -21.797,-0.1277 -22.7541,-1.0584 7.2272,32.7334 2.6411,51.0779 -13.7584,55.0334 -15.8731,2.783 -21.4419,-12.757 -16.7064,-46.62"/>
  <path class="fil0 str0" d="M409.254 483.703c1.6913,-13.2137 -3.3053,-20.1704 -14.9899,-20.8701"/>
  <path class="fil0 str0" d="M458.823 408.857c-13.4138,8.9684 -22.586,9.8503 -27.5167,2.6459 -2.964,15.8362 -1.7293,28.3598 3.7042,37.5708 -7.4292,20.0548 -5.3126,25.8756 6.35,17.4625 4.515,-4.8543 11.2178,-4.1487 20.1083,2.1167 12.5728,-5.6102 11.1617,-14.2532 -4.2333,-25.9292 -1.2857,-12.3979 -0.7566,-23.6868 1.5875,-33.8667z"/>
 </g>
</svg>
