<svg width="367" height="1021" viewBox="0 0 367 1021" fill="none" xmlns="http://www.w3.org/2000/svg">
<rect width="367" height="1021" fill="#F5F5F5"/>
<rect width="367" height="1021" fill="white"/>
<path d="M209.871 327.85C164.698 318.522 119.35 325.305 73.8277 348.199C37.9363 369.898 32.2249 399.723 56.6935 437.673C57.1525 438.385 57.7159 439.045 58.3497 439.607C84.5341 462.828 117.671 472.743 157.76 469.352C158.322 469.304 158.889 469.301 159.451 469.343C193.043 471.842 229.785 462.663 269.677 441.806C310.137 415.133 326.674 384.746 319.291 350.645C319.086 349.7 318.724 348.783 318.228 347.954C301.08 319.29 269.78 308.519 224.329 315.641C190.254 317.673 151.916 327.847 109.317 346.165" stroke="#4DCCFF" stroke-width="9.44882"/>
</svg>
