<?xml version="1.0" encoding="UTF-8"?>
<!DOCTYPE svg PUBLIC "-//W3C//DTD SVG 1.1//EN" "http://www.w3.org/Graphics/SVG/1.1/DTD/svg11.dtd">
<!-- Creator: CorelDRAW -->
<svg xmlns="http://www.w3.org/2000/svg" xml:space="preserve" width="393mm" height="851mm" style="shape-rendering:geometricPrecision; text-rendering:geometricPrecision; image-rendering:optimizeQuality; fill-rule:evenodd; clip-rule:evenodd"
viewBox="0 0 393 851"
 xmlns:xlink="http://www.w3.org/1999/xlink">
 <defs>
  <style type="text/css">
   <![CDATA[
    .str0 {stroke:#373435;stroke-width:0.2}
    .fil0 {fill:none}
   ]]>
  </style>
 </defs>
 <g id="Layer_x0020_1">
  <metadata id="CorelCorpID_0Corel-Layer"/>
  <path class="fil0 str0" d="M142.509 536.319c560.306,-178.489 417.379,-699.196 218.527,-187.004 -60.2349,139.981 -75.4617,239.337 -45.6804,298.069 26.3246,19.7089 50.0006,-10.4507 71.028,-90.4787 22.2464,-68.9435 52.5855,-101.1 91.0175,-96.4703 43.151,14.6564 -70.4942,326.051 144.289,124.279 86.5539,-52.4658 210.305,-53.2434 228.373,-176.007 -11.5405,-47.8068 -53.6965,-49.2814 -126.468,-4.4237 -47.9223,38.5474 -79.3594,84.5214 -94.3113,137.922 -11.7451,57.831 3.9727,95.2443 47.1536,112.24 69.0912,18.542 135.474,-14.4374 199.15,-98.9381 143.189,-141.985 223.537,-262.745 241.045,-362.279 6.4808,-82.7304 -13.2529,-98.6347 -59.201,-47.713 -130.429,214.458 -191.127,363.015 -182.093,445.67 45.3258,221.946 391.396,-263.297 395.651,-395.085 -8.56,-77.6303 -40.0771,-69.9149 -94.5513,23.1461 -111.474,200.119 -152.449,335.014 -122.926,404.684 122.302,128.488 225.924,-250.426 238.192,-161.622 -126.876,237.71 58.8583,167.727 106.313,14.4876 23.6967,-165.806 -107.633,-44.3186 -34.5763,69.4137 41.4693,34.1217 81.4001,23.6631 119.792,-31.3757"/>
 </g>
</svg>
