<?xml version="1.0" encoding="UTF-8"?>
<!DOCTYPE svg PUBLIC "-//W3C//DTD SVG 1.1//EN" "http://www.w3.org/Graphics/SVG/1.1/DTD/svg11.dtd">
<!-- Creator: CorelDRAW -->
<svg xmlns="http://www.w3.org/2000/svg" xml:space="preserve" width="393mm" height="851mm" style="shape-rendering:geometricPrecision; text-rendering:geometricPrecision; image-rendering:optimizeQuality; fill-rule:evenodd; clip-rule:evenodd"
viewBox="0 0 393 851"
 xmlns:xlink="http://www.w3.org/1999/xlink">
 <defs>
  <style type="text/css">
   <![CDATA[
    .str0 {stroke:#373435;stroke-width:10}
    .fil0 {fill:none}
   ]]>
  </style>
 </defs>
 <g id="Layer_x0020_1">
  <metadata id="CorelCorpID_0Corel-Layer"/>
  <polygon class="fil0 str0" points="10.7022,399.616 -64.9686,398.029 38.2189,148.791 106.481,148.262 178.448,316.008 355.454,175.514 131.617,382.418 121.034,357.018 25.2543,358.077 "/>
  <polygon class="fil0 str0" points="99.2054,299.207 70.6303,232.532 46.8178,299.207 "/>
  <path class="fil0 str0" d="M383.103 498.967c-3.3233,30.6126 -24.49,51.4265 -63.5,62.4417l-165.1 2.1167 2.1167 -162.983 -176.742 134.408 242.358 -218.017 88.9 -2.1167c40.2432,8.9273 59.9987,28.6829 59.2666,59.2667 0.7678,29.5418 -12.6377,49.2974 -40.2166,59.2667 31.5041,7.7615 49.1429,29.6337 52.9166,65.6166z"/>
  <path class="fil0 str0" d="M277.27 370.909c-33.1611,0.7055 -49.7417,1.0583 -49.7417,1.0583 1.5192,19.08 1.5192,31.78 0,38.1 37.772,-1.7392 55.4109,-1.0337 52.9167,2.1167 25.1256,-17.9415 24.0672,-31.6998 -3.175,-41.275z"/>
  <path class="fil0 str0" d="M292.087 503.2c21.0091,-10.5739 22.4202,-23.6267 4.2333,-39.1584 0,0 -23.9889,-0.3528 -71.9667,-1.0583 0.7056,26.8111 1.0584,40.2167 1.0584,40.2167 44.45,0 66.675,0 66.675,0z"/>
 </g>
</svg>
