<?xml version="1.0" encoding="UTF-8"?>
<!DOCTYPE svg PUBLIC "-//W3C//DTD SVG 1.1//EN" "http://www.w3.org/Graphics/SVG/1.1/DTD/svg11.dtd">
<!-- Creator: CorelDRAW -->
<svg xmlns="http://www.w3.org/2000/svg" xml:space="preserve" width="393mm" height="851mm" style="shape-rendering:geometricPrecision; text-rendering:geometricPrecision; image-rendering:optimizeQuality; fill-rule:evenodd; clip-rule:evenodd"
viewBox="0 0 393 851"
 xmlns:xlink="http://www.w3.org/1999/xlink">
 <defs>
  <style type="text/css">
   <![CDATA[
    .str0 {stroke:#373435;stroke-width:10}
    .fil0 {fill:none}
   ]]>
  </style>
 </defs>
 <g id="Layer_x0020_1">
  <metadata id="CorelCorpID_0Corel-Layer"/>
  <path class="fil0 str0" d="M-341.816 468.455c50.8726,-21.2634 110.492,-54.4245 178.858,-99.4833 195.533,-129.04 144.91,-316.959 60.9678,-190.188 -47.8741,73.0231 -83.959,156.54 -108.255,250.552 -49.7424,314.722 100.17,-106.173 139.56,-16.2847 -24.3558,92.4053 -17.0209,135.202 22.0047,128.391 44.5401,-12.667 84.5808,-39.7772 120.122,-81.3308 185.536,-79.7429 94.5308,-185.29 11.9608,-30.95 -27.5872,76.6 -16.3135,112.273 33.8212,107.018 47.8559,-10.9133 87.5492,-42.4063 119.08,-94.479"/>
  <path class="fil0 str0" d="M234.057 445.355c107.68,-115.509 164.077,-212.111 164.696,-282.495 -6.0592,-17.988 -19.7765,-17.1612 -41.1517,2.4804 -154.084,235.741 -152.097,534.83 -3.1412,310.156 115.148,-116.236 173.4,-209.658 174.754,-280.265 -6.5966,-57.7292 -29.3106,-54.2481 -68.1419,10.4434 -152.795,245.926 -93.8664,454.695 15.4742,282.458 4.3577,-11.9776 19.258,-24.9614 30.199,-37.0338 45.1211,-49.7875 37.8611,-49.5558 58.0194,-64.8893 -95.6018,147.858 -12.5547,161.115 38.4226,127.409 36.8412,-24.3589 42.2711,-76.7855 21.3054,-103.79 -94.2117,-121.348 -119.088,240.873 71.5922,33.796"/>
 </g>
</svg>
